<svg xmlns="http://www.w3.org/2000/svg" xmlns:xlink="http://www.w3.org/1999/xlink" version="1.1" x="0px" y="0px" viewBox="0 0 100 125" enable-background="new 0 0 100 100" xml:space="preserve"><path d="M95.203,17.416l-15.788-4.552c-0.021-0.006-0.043-0.008-0.065-0.012c-0.009-0.001-0.018-0.006-0.027-0.007  c-0.005-0.001-0.008,0-0.014,0c-0.045-0.006-0.089-0.007-0.133-0.002c-0.005,0-0.009,0-0.015,0  c-0.047,0.006-0.092,0.019-0.137,0.034c-0.014,0.004-0.026,0.012-0.039,0.018c-0.032,0.014-0.062,0.03-0.093,0.048  c-0.012,0.008-0.023,0.017-0.036,0.025c-0.031,0.023-0.06,0.05-0.086,0.079c-0.006,0.004-0.011,0.01-0.018,0.015l-6.49,7.512  c-0.23,0.267-0.202,0.671,0.066,0.902c0.268,0.232,0.673,0.202,0.901-0.065l5.852-6.772l5.817,12.182L43.124,16.272  c-0.154-0.039-0.317-0.019-0.457,0.056L11.304,32.971c-0.26,0.137-0.393,0.434-0.322,0.72c0.071,0.283,0.328,0.485,0.622,0.485  h7.041c0.353,0,0.64-0.288,0.64-0.641c0-0.353-0.287-0.641-0.64-0.641h-4.468l28.874-15.32l37.866,9.561h-48.19  c-0.007,0-0.014,0.002-0.021,0.002c-0.046,0.002-0.091,0.008-0.137,0.02c-0.006,0.001-0.014,0.001-0.021,0.003  c-0.051,0.015-0.098,0.036-0.144,0.062c-0.005,0.003-0.009,0.003-0.014,0.007L1.665,46.218c-0.243,0.151-0.357,0.444-0.279,0.721  c0.078,0.272,0.33,0.463,0.615,0.463H55.81l20.37,39.413c0.11,0.213,0.331,0.346,0.568,0.346c0.024,0,0.047-0.002,0.07-0.004  c0.264-0.031,0.482-0.219,0.55-0.475l4.978-19.061c0.064-0.242-0.021-0.502-0.216-0.66l-1.957-1.586  c-0.273-0.223-0.678-0.182-0.899,0.096c-0.224,0.273-0.182,0.676,0.094,0.898l1.637,1.328l-4.453,17.045L58.168,49.179L76.63,64.115  c0.117,0.094,0.258,0.145,0.403,0.145c0.067,0,0.137-0.012,0.202-0.035c0.208-0.066,0.364-0.238,0.418-0.449l9.032-35.845  c0.004-0.017,0.005-0.034,0.008-0.051c0.003-0.017,0.005-0.031,0.007-0.048c0-0.009,0.004-0.02,0.004-0.028c0-0.002,0-0.003,0-0.003  c0.001-0.043-0.001-0.085-0.007-0.126c0-0.002-0.001-0.004-0.002-0.008c-0.004-0.018-0.008-0.034-0.014-0.05  c-0.001-0.007,0-0.013-0.002-0.02c-0.001-0.005-0.004-0.008-0.006-0.013c-0.006-0.022-0.015-0.043-0.025-0.065  c-0.002-0.006-0.004-0.013-0.006-0.02l-6.214-13.01L93.27,18.19l-6.423,3.198c-0.316,0.157-0.444,0.541-0.288,0.858  c0.113,0.224,0.339,0.354,0.574,0.354c0.096,0,0.193-0.022,0.284-0.067l7.896-3.93c0.235-0.119,0.375-0.369,0.353-0.632  C95.641,17.71,95.458,17.488,95.203,17.416z M34.534,28.414h49.331l-27.623,17.56L34.534,28.414z M32.677,28.557L54.39,46.123H4.254  L32.677,28.557z M76.657,62.49L57.291,46.824l27.762-17.646L76.657,62.49z"/><text x="0" y="115" fill="#000000" font-size="5px" font-weight="bold" font-family="'Helvetica Neue', Helvetica, Arial-Unicode, Arial, Sans-serif">Created by Melissa Maury</text><text x="0" y="120" fill="#000000" font-size="5px" font-weight="bold" font-family="'Helvetica Neue', Helvetica, Arial-Unicode, Arial, Sans-serif">from the Noun Project</text></svg>